<?xml version="1.0" encoding="UTF-8"?>
<svg xmlns="http://www.w3.org/2000/svg" xmlns:xlink="http://www.w3.org/1999/xlink" fill-opacity="1" color-rendering="auto" color-interpolation="auto" stroke="black" text-rendering="auto" stroke-linecap="square" width="842" stroke-miterlimit="10" stroke-opacity="1" shape-rendering="auto" fill="black" stroke-dasharray="none" font-weight="normal" stroke-width="1" height="416" font-family="'Dialog'" font-style="normal" stroke-linejoin="miter" font-size="12" stroke-dashoffset="0" image-rendering="auto">
  <!--Generated by ySVG-->
  <defs id="genericDefs"/>
  <g>
    <defs id="defs1">
      <linearGradient x1="-48.25" gradientUnits="userSpaceOnUse" x2="-48.25" y1="39.8857" y2="104.3857" id="linearGradient1" spreadMethod="pad">
        <stop stop-opacity="1" stop-color="rgb(255,230,191)" offset="0%"/>
        <stop stop-opacity="1" stop-color="rgb(255,173,51)" offset="100%"/>
      </linearGradient>
      <linearGradient x1="151.75" gradientUnits="userSpaceOnUse" x2="151.75" y1="39.8857" y2="104.3857" id="linearGradient2" spreadMethod="pad">
        <stop stop-opacity="1" stop-color="rgb(255,230,191)" offset="0%"/>
        <stop stop-opacity="1" stop-color="rgb(255,173,51)" offset="100%"/>
      </linearGradient>
      <linearGradient x1="344.75" gradientUnits="userSpaceOnUse" x2="344.75" y1="39.8857" y2="104.3857" id="linearGradient3" spreadMethod="pad">
        <stop stop-opacity="1" stop-color="rgb(255,230,191)" offset="0%"/>
        <stop stop-opacity="1" stop-color="rgb(255,173,51)" offset="100%"/>
      </linearGradient>
      <linearGradient x1="661.75" gradientUnits="userSpaceOnUse" x2="661.75" y1="39.8857" y2="104.3857" id="linearGradient4" spreadMethod="pad">
        <stop stop-opacity="1" stop-color="rgb(255,230,191)" offset="0%"/>
        <stop stop-opacity="1" stop-color="rgb(255,173,51)" offset="100%"/>
      </linearGradient>
      <linearGradient x1="468.75" gradientUnits="userSpaceOnUse" x2="468.75" y1="39.8857" y2="104.3857" id="linearGradient5" spreadMethod="pad">
        <stop stop-opacity="1" stop-color="rgb(255,230,191)" offset="0%"/>
        <stop stop-opacity="1" stop-color="rgb(255,173,51)" offset="100%"/>
      </linearGradient>
      <clipPath clipPathUnits="userSpaceOnUse" id="clipPath1">
        <path d="M0 0 L842 0 L842 416 L0 416 L0 0 Z"/>
      </clipPath>
      <clipPath clipPathUnits="userSpaceOnUse" id="clipPath2">
        <path d="M-64 -101 L778 -101 L778 315 L-64 315 L-64 -101 Z"/>
      </clipPath>
    </defs>
    <g fill="white" transform="translate(64,101)" stroke="white">
      <rect x="-64" width="842" height="416" y="-101" clip-path="url(#clipPath2)" stroke="none"/>
    </g>
    <g fill="rgb(255,204,0)" transform="matrix(1,0,0,1,64,101)" stroke="rgb(255,204,0)">
      <rect x="339.25" width="236" height="103" y="19.8857" clip-path="url(#clipPath2)" stroke="none"/>
    </g>
    <g font-family="sans-serif" font-size="13" transform="matrix(1,0,0,1,64,101)">
      <text x="425.2642" xml:space="preserve" y="33.9526" clip-path="url(#clipPath2)" stroke="none">local repo</text>
    </g>
    <g stroke-linecap="butt" transform="matrix(1,0,0,1,64,101)" stroke-miterlimit="1.45">
      <rect fill="none" x="339.25" width="236" height="103" y="19.8857" clip-path="url(#clipPath2)"/>
    </g>
    <g fill="rgb(255,153,0)" transform="matrix(1,0,0,1,64,101)" stroke="rgb(255,153,0)">
      <path d="M-48.25 70.8857 L52.75 70.8857 L52.75 92.8857 Q52.75 102.8857 42.75 102.8857 L-38.25 102.8857 Q-48.25 102.8857 -48.25 92.8857 Z" clip-path="url(#clipPath2)" stroke="none"/>
      <path fill="url(#linearGradient1)" d="M-48.25 50.8857 Q-48.25 40.8857 -38.25 40.8857 L42.75 40.8857 Q52.75 40.8857 52.75 50.8857 L52.75 71.8857 L-48.25 71.8857 Z" clip-path="url(#clipPath2)" stroke="none"/>
      <path fill="none" stroke-width="2" d="M-46.25 50.8857 Q-46.25 42.8857 -38.25 42.8857 L42.75 42.8857 Q50.75 42.8857 50.75 50.8857 L50.75 92.8857 Q50.75 100.8857 42.75 100.8857 L-38.25 100.8857 Q-46.25 100.8857 -46.25 92.8857 Z" clip-path="url(#clipPath2)" stroke="rgb(255,240,217)"/>
      <path fill="none" d="M-46.25 50.8857 Q-46.25 42.8857 -38.25 42.8857 L42.75 42.8857 Q50.75 42.8857 50.75 50.8857 L50.75 92.8857 Q50.75 100.8857 42.75 100.8857 L-38.25 100.8857 Q-46.25 100.8857 -46.25 92.8857 Z" clip-path="url(#clipPath2)"/>
      <text x="-29.8711" y="76.04" clip-path="url(#clipPath2)" fill="black" font-family="sans-serif" stroke="none" xml:space="preserve">workspace</text>
    </g>
    <g fill="rgb(255,153,0)" transform="matrix(1,0,0,1,64,101)" stroke="rgb(255,153,0)">
      <path d="M151.75 70.8857 L252.75 70.8857 L252.75 92.8857 Q252.75 102.8857 242.75 102.8857 L161.75 102.8857 Q151.75 102.8857 151.75 92.8857 Z" clip-path="url(#clipPath2)" stroke="none"/>
      <path fill="url(#linearGradient2)" d="M151.75 50.8857 Q151.75 40.8857 161.75 40.8857 L242.75 40.8857 Q252.75 40.8857 252.75 50.8857 L252.75 71.8857 L151.75 71.8857 Z" clip-path="url(#clipPath2)" stroke="none"/>
      <path fill="none" stroke-width="2" d="M153.75 50.8857 Q153.75 42.8857 161.75 42.8857 L242.75 42.8857 Q250.75 42.8857 250.75 50.8857 L250.75 92.8857 Q250.75 100.8857 242.75 100.8857 L161.75 100.8857 Q153.75 100.8857 153.75 92.8857 Z" clip-path="url(#clipPath2)" stroke="rgb(255,240,217)"/>
      <path fill="none" d="M153.75 50.8857 Q153.75 42.8857 161.75 42.8857 L242.75 42.8857 Q250.75 42.8857 250.75 50.8857 L250.75 92.8857 Q250.75 100.8857 242.75 100.8857 L161.75 100.8857 Q153.75 100.8857 153.75 92.8857 Z" clip-path="url(#clipPath2)"/>
      <text x="185.7295" y="76.04" clip-path="url(#clipPath2)" fill="black" font-family="sans-serif" stroke="none" xml:space="preserve">index</text>
    </g>
    <g fill="rgb(255,153,0)" transform="matrix(1,0,0,1,64,101)" stroke="rgb(255,153,0)">
      <path d="M344.75 70.8857 L445.75 70.8857 L445.75 92.8857 Q445.75 102.8857 435.75 102.8857 L354.75 102.8857 Q344.75 102.8857 344.75 92.8857 Z" clip-path="url(#clipPath2)" stroke="none"/>
      <path fill="url(#linearGradient3)" d="M344.75 50.8857 Q344.75 40.8857 354.75 40.8857 L435.75 40.8857 Q445.75 40.8857 445.75 50.8857 L445.75 71.8857 L344.75 71.8857 Z" clip-path="url(#clipPath2)" stroke="none"/>
      <path fill="none" stroke-width="2" d="M346.75 50.8857 Q346.75 42.8857 354.75 42.8857 L435.75 42.8857 Q443.75 42.8857 443.75 50.8857 L443.75 92.8857 Q443.75 100.8857 435.75 100.8857 L354.75 100.8857 Q346.75 100.8857 346.75 92.8857 Z" clip-path="url(#clipPath2)" stroke="rgb(255,240,217)"/>
      <path fill="none" d="M346.75 50.8857 Q346.75 42.8857 354.75 42.8857 L435.75 42.8857 Q443.75 42.8857 443.75 50.8857 L443.75 92.8857 Q443.75 100.8857 435.75 100.8857 L354.75 100.8857 Q346.75 100.8857 346.75 92.8857 Z" clip-path="url(#clipPath2)"/>
      <text x="374.0918" y="76.04" clip-path="url(#clipPath2)" fill="black" font-family="sans-serif" stroke="none" xml:space="preserve">master</text>
    </g>
    <g fill="rgb(255,153,0)" transform="matrix(1,0,0,1,64,101)" stroke="rgb(255,153,0)">
      <path d="M661.75 70.8857 L762.75 70.8857 L762.75 92.8857 Q762.75 102.8857 752.75 102.8857 L671.75 102.8857 Q661.75 102.8857 661.75 92.8857 Z" clip-path="url(#clipPath2)" stroke="none"/>
      <path fill="url(#linearGradient4)" d="M661.75 50.8857 Q661.75 40.8857 671.75 40.8857 L752.75 40.8857 Q762.75 40.8857 762.75 50.8857 L762.75 71.8857 L661.75 71.8857 Z" clip-path="url(#clipPath2)" stroke="none"/>
      <path fill="none" stroke-width="2" d="M663.75 50.8857 Q663.75 42.8857 671.75 42.8857 L752.75 42.8857 Q760.75 42.8857 760.75 50.8857 L760.75 92.8857 Q760.75 100.8857 752.75 100.8857 L671.75 100.8857 Q663.75 100.8857 663.75 92.8857 Z" clip-path="url(#clipPath2)" stroke="rgb(255,240,217)"/>
      <path fill="none" d="M663.75 50.8857 Q663.75 42.8857 671.75 42.8857 L752.75 42.8857 Q760.75 42.8857 760.75 50.8857 L760.75 92.8857 Q760.75 100.8857 752.75 100.8857 L671.75 100.8857 Q663.75 100.8857 663.75 92.8857 Z" clip-path="url(#clipPath2)"/>
      <text x="674.9873" y="76.04" clip-path="url(#clipPath2)" fill="black" font-family="sans-serif" stroke="none" xml:space="preserve">remote repo</text>
    </g>
    <g fill="rgb(255,153,0)" transform="matrix(1,0,0,1,64,101)" stroke="rgb(255,153,0)">
      <path d="M468.75 70.8857 L569.75 70.8857 L569.75 92.8857 Q569.75 102.8857 559.75 102.8857 L478.75 102.8857 Q468.75 102.8857 468.75 92.8857 Z" clip-path="url(#clipPath2)" stroke="none"/>
      <path fill="url(#linearGradient5)" d="M468.75 50.8857 Q468.75 40.8857 478.75 40.8857 L559.75 40.8857 Q569.75 40.8857 569.75 50.8857 L569.75 71.8857 L468.75 71.8857 Z" clip-path="url(#clipPath2)" stroke="none"/>
      <path fill="none" stroke-width="2" d="M470.75 50.8857 Q470.75 42.8857 478.75 42.8857 L559.75 42.8857 Q567.75 42.8857 567.75 50.8857 L567.75 92.8857 Q567.75 100.8857 559.75 100.8857 L478.75 100.8857 Q470.75 100.8857 470.75 92.8857 Z" clip-path="url(#clipPath2)" stroke="rgb(255,240,217)"/>
      <path fill="none" d="M470.75 50.8857 Q470.75 42.8857 478.75 42.8857 L559.75 42.8857 Q567.75 42.8857 567.75 50.8857 L567.75 92.8857 Q567.75 100.8857 559.75 100.8857 L478.75 100.8857 Q470.75 100.8857 470.75 92.8857 Z" clip-path="url(#clipPath2)"/>
      <text x="478.9873" y="76.04" clip-path="url(#clipPath2)" fill="black" font-family="sans-serif" stroke="none" xml:space="preserve">origin/master</text>
    </g>
    <g fill="red" stroke-miterlimit="1.45" transform="matrix(1,0,0,1,64,101)" stroke-linecap="butt" stroke="red">
      <path fill="none" d="M151.7129 71.8857 L60.7156 71.8857" clip-path="url(#clipPath2)"/>
      <path d="M52.7156 71.8857 L64.7156 76.8857 L61.7156 71.8857 L64.7156 66.8857 Z" clip-path="url(#clipPath2)" stroke="none"/>
      <text x="53.7578" xml:space="preserve" y="87.0244" font-family="sans-serif" clip-path="url(#clipPath2)" stroke="none">checkout &lt;file&gt;</text>
      <path fill="none" d="M438.7558 40.8928 L439.7762 35.1095 L439.9625 30.9332 L439.7313 26.8382 L439.1009 22.8469 L438.09 18.9817 L436.7169 15.2651 L435.0002 11.7193 L432.9583 8.3667 L430.6098 5.2298 L427.9731 2.3309 L425.0667 -0.3075 L421.9091 -2.6632 L418.5188 -4.7138 L414.9142 -6.4368 L411.1139 -7.8098 L407.1363 -8.8106 L403 -9.4167 L398.8236 -9.603 L394.7286 -9.3717 L390.7374 -8.7414 L386.8722 -7.7304 L383.1555 -6.3573 L379.6097 -4.6406 L376.2572 -2.5988 L373.1203 -0.2502 L370.2214 2.3865 L367.5829 5.2929 L365.2272 8.4505 L363.1767 11.8408 L361.4537 15.4453 L360.0806 19.2456 L359.0799 23.2232 L358.4738 27.3595 L358.2875 31.5359 L358.3666 32.9371 L358.3846 33.0355" clip-path="url(#clipPath2)" stroke="black"/>
      <path fill="black" d="M359.8201 40.9056 L362.5856 28.2032 L358.2051 32.0517 L352.748 29.9976 Z" clip-path="url(#clipPath2)" stroke="none"/>
    </g>
    <g stroke-width="3" transform="matrix(1,0,0,1,64,101)" stroke-miterlimit="1.6">
      <rect fill="none" x="317.8724" width="82.3086" height="21.9688" y="0.1877" clip-path="url(#clipPath2)"/>
      <rect x="317.8724" y="0.1877" clip-path="url(#clipPath2)" fill="none" width="82.3086" height="21.9688" stroke="white" stroke-width="1"/>
    </g>
    <g stroke-miterlimit="1.45" font-family="sans-serif" transform="matrix(1,0,0,1,64,101)" stroke-linecap="butt">
      <text x="321.8724" xml:space="preserve" y="15.3263" clip-path="url(#clipPath2)" stroke="none">revert HEAD</text>
      <path fill="none" d="M370.75 102.8715 L370.75 191.8857 L2.25 191.8857 L2.25 110.9111" clip-path="url(#clipPath2)" stroke="red"/>
      <path fill="red" d="M2.25 102.9111 L-2.75 114.9111 L2.25 111.9111 L7.25 114.9111 Z" clip-path="url(#clipPath2)" stroke="none"/>
      <text fill="red" x="119.0732" xml:space="preserve" y="207.0244" clip-path="url(#clipPath2)" stroke="none">checkout HEAD &lt;file&gt;</text>
      <text fill="red" x="143.1348" xml:space="preserve" y="185.0557" clip-path="url(#clipPath2)" stroke="none">reset --hard or</text>
      <path fill="none" d="M344.7854 71.8857 L260.7429 71.8857" clip-path="url(#clipPath2)" stroke="red"/>
      <path fill="red" d="M252.7429 71.8857 L264.7429 76.8857 L261.7429 71.8857 L264.7429 66.8857 Z" clip-path="url(#clipPath2)" stroke="none"/>
      <text fill="red" x="262.3223" xml:space="preserve" y="87.0244" clip-path="url(#clipPath2)" stroke="none">reset &lt;file&gt;</text>
      <path fill="none" d="M712.25 40.8801 L712.25 -65.1143 L-35.25 -65.1143 L-35.25 32.8975" clip-path="url(#clipPath2)"/>
      <path d="M-35.25 40.8975 L-30.25 28.8975 L-35.25 31.8975 L-40.25 28.8975 Z" clip-path="url(#clipPath2)" stroke="none"/>
      <text x="297.1416" xml:space="preserve" y="-71.9443" clip-path="url(#clipPath2)" stroke="none">pull or rebase</text>
      <path fill="none" d="M661.7623 51.75 L577.7169 51.75" clip-path="url(#clipPath2)"/>
      <path d="M569.7169 51.75 L581.7169 56.75 L578.7169 51.75 L581.7169 46.75 Z" clip-path="url(#clipPath2)" stroke="none"/>
      <text x="600.4922" xml:space="preserve" y="66.8887" clip-path="url(#clipPath2)" stroke="none">fetch</text>
      <path fill="none" d="M541.75 102.9079 L541.75 279.8857 L-27.75 279.8857 L-27.75 110.9204" clip-path="url(#clipPath2)" stroke="red"/>
      <path fill="red" d="M-27.75 102.9204 L-32.75 114.9204 L-27.75 111.9204 L-22.75 114.9204 Z" clip-path="url(#clipPath2)" stroke="none"/>
      <text fill="red" x="179.5098" xml:space="preserve" y="295.0244" clip-path="url(#clipPath2)" stroke="none">reset --hard origin/master</text>
      <path fill="none" d="M519.25 40.9093 L519.25 -47.25 L-4.75 -47.25 L-4.75 32.8848" clip-path="url(#clipPath2)"/>
      <path d="M-4.75 40.8848 L0.25 28.8848 L-4.75 31.8848 L-9.75 28.8848 Z" clip-path="url(#clipPath2)" stroke="none"/>
      <text x="237.7471" xml:space="preserve" y="-32.1113" clip-path="url(#clipPath2)" stroke="none">merge</text>
      <path fill="none" d="M497.75 102.8799 L497.75 166.75 L415.75 166.75 L415.75 110.8799" clip-path="url(#clipPath2)" stroke="red"/>
      <path fill="red" d="M415.75 102.8799 L410.75 114.8799 L415.75 111.8799 L420.75 114.8799 Z" clip-path="url(#clipPath2)" stroke="none"/>
      <text fill="red" x="381.7529" xml:space="preserve" y="181.8887" clip-path="url(#clipPath2)" stroke="none">reset --soft origin/master</text>
    </g>
  </g>
</svg>
