<?xml version="1.0" encoding="UTF-8"?>
<svg xmlns="http://www.w3.org/2000/svg" xmlns:xlink="http://www.w3.org/1999/xlink" fill-opacity="1" color-rendering="auto" color-interpolation="auto" stroke="black" text-rendering="auto" stroke-linecap="square" width="731" stroke-miterlimit="10" stroke-opacity="1" shape-rendering="auto" fill="black" stroke-dasharray="none" font-weight="normal" stroke-width="1" height="185" font-family="'Dialog'" font-style="normal" stroke-linejoin="miter" font-size="12" stroke-dashoffset="0" image-rendering="auto">
  <!--Generated by ySVG-->
  <defs id="genericDefs"/>
  <g>
    <defs id="defs1">
      <linearGradient x1="60" gradientUnits="userSpaceOnUse" x2="60" y1="322" y2="386.5" id="linearGradient1" spreadMethod="pad">
        <stop stop-opacity="1" stop-color="rgb(255,230,191)" offset="0%"/>
        <stop stop-opacity="1" stop-color="rgb(255,173,51)" offset="100%"/>
      </linearGradient>
      <linearGradient x1="260" gradientUnits="userSpaceOnUse" x2="260" y1="322" y2="386.5" id="linearGradient2" spreadMethod="pad">
        <stop stop-opacity="1" stop-color="rgb(255,230,191)" offset="0%"/>
        <stop stop-opacity="1" stop-color="rgb(255,173,51)" offset="100%"/>
      </linearGradient>
      <linearGradient x1="460" gradientUnits="userSpaceOnUse" x2="460" y1="322" y2="386.5" id="linearGradient3" spreadMethod="pad">
        <stop stop-opacity="1" stop-color="rgb(255,230,191)" offset="0%"/>
        <stop stop-opacity="1" stop-color="rgb(255,173,51)" offset="100%"/>
      </linearGradient>
      <linearGradient x1="660" gradientUnits="userSpaceOnUse" x2="660" y1="322" y2="386.5" id="linearGradient4" spreadMethod="pad">
        <stop stop-opacity="1" stop-color="rgb(255,230,191)" offset="0%"/>
        <stop stop-opacity="1" stop-color="rgb(255,173,51)" offset="100%"/>
      </linearGradient>
      <clipPath clipPathUnits="userSpaceOnUse" id="clipPath1">
        <path d="M0 0 L731 0 L731 185 L0 185 L0 0 Z"/>
      </clipPath>
      <clipPath clipPathUnits="userSpaceOnUse" id="clipPath2">
        <path d="M45 215 L776 215 L776 400 L45 400 L45 215 Z"/>
      </clipPath>
    </defs>
    <g fill="white" transform="translate(-45,-215)" stroke="white">
      <rect x="45" width="731" height="185" y="215" clip-path="url(#clipPath2)" stroke="none"/>
    </g>
    <g fill="rgb(255,153,0)" transform="matrix(1,0,0,1,-45,-215)" stroke="rgb(255,153,0)">
      <path d="M60 353 L161 353 L161 375 Q161 385 151 385 L70 385 Q60 385 60 375 Z" clip-path="url(#clipPath2)" stroke="none"/>
      <path fill="url(#linearGradient1)" d="M60 333 Q60 323 70 323 L151 323 Q161 323 161 333 L161 354 L60 354 Z" clip-path="url(#clipPath2)" stroke="none"/>
      <path fill="none" stroke-width="2" d="M62 333 Q62 325 70 325 L151 325 Q159 325 159 333 L159 375 Q159 383 151 383 L70 383 Q62 383 62 375 Z" clip-path="url(#clipPath2)" stroke="rgb(255,240,217)"/>
      <path fill="none" d="M62 333 Q62 325 70 325 L151 325 Q159 325 159 333 L159 375 Q159 383 151 383 L70 383 Q62 383 62 375 Z" clip-path="url(#clipPath2)"/>
      <text x="78.3789" y="358.1543" clip-path="url(#clipPath2)" fill="black" font-family="sans-serif" stroke="none" xml:space="preserve">workspace</text>
    </g>
    <g fill="rgb(255,153,0)" transform="matrix(1,0,0,1,-45,-215)" stroke="rgb(255,153,0)">
      <path d="M260 353 L361 353 L361 375 Q361 385 351 385 L270 385 Q260 385 260 375 Z" clip-path="url(#clipPath2)" stroke="none"/>
      <path fill="url(#linearGradient2)" d="M260 333 Q260 323 270 323 L351 323 Q361 323 361 333 L361 354 L260 354 Z" clip-path="url(#clipPath2)" stroke="none"/>
      <path fill="none" stroke-width="2" d="M262 333 Q262 325 270 325 L351 325 Q359 325 359 333 L359 375 Q359 383 351 383 L270 383 Q262 383 262 375 Z" clip-path="url(#clipPath2)" stroke="rgb(255,240,217)"/>
      <path fill="none" d="M262 333 Q262 325 270 325 L351 325 Q359 325 359 333 L359 375 Q359 383 351 383 L270 383 Q262 383 262 375 Z" clip-path="url(#clipPath2)"/>
      <text x="293.9795" y="358.1543" clip-path="url(#clipPath2)" fill="black" font-family="sans-serif" stroke="none" xml:space="preserve">index</text>
    </g>
    <g fill="rgb(255,153,0)" transform="matrix(1,0,0,1,-45,-215)" stroke="rgb(255,153,0)">
      <path d="M460 353 L561 353 L561 375 Q561 385 551 385 L470 385 Q460 385 460 375 Z" clip-path="url(#clipPath2)" stroke="none"/>
      <path fill="url(#linearGradient3)" d="M460 333 Q460 323 470 323 L551 323 Q561 323 561 333 L561 354 L460 354 Z" clip-path="url(#clipPath2)" stroke="none"/>
      <path fill="none" stroke-width="2" d="M462 333 Q462 325 470 325 L551 325 Q559 325 559 333 L559 375 Q559 383 551 383 L470 383 Q462 383 462 375 Z" clip-path="url(#clipPath2)" stroke="rgb(255,240,217)"/>
      <path fill="none" d="M462 333 Q462 325 470 325 L551 325 Q559 325 559 333 L559 375 Q559 383 551 383 L470 383 Q462 383 462 375 Z" clip-path="url(#clipPath2)"/>
      <text x="480.9746" y="358.1543" clip-path="url(#clipPath2)" fill="black" font-family="sans-serif" stroke="none" xml:space="preserve">local repo</text>
    </g>
    <g fill="rgb(255,153,0)" transform="matrix(1,0,0,1,-45,-215)" stroke="rgb(255,153,0)">
      <path d="M660 353 L761 353 L761 375 Q761 385 751 385 L670 385 Q660 385 660 375 Z" clip-path="url(#clipPath2)" stroke="none"/>
      <path fill="url(#linearGradient4)" d="M660 333 Q660 323 670 323 L751 323 Q761 323 761 333 L761 354 L660 354 Z" clip-path="url(#clipPath2)" stroke="none"/>
      <path fill="none" stroke-width="2" d="M662 333 Q662 325 670 325 L751 325 Q759 325 759 333 L759 375 Q759 383 751 383 L670 383 Q662 383 662 375 Z" clip-path="url(#clipPath2)" stroke="rgb(255,240,217)"/>
      <path fill="none" d="M662 333 Q662 325 670 325 L751 325 Q759 325 759 333 L759 375 Q759 383 751 383 L670 383 Q662 383 662 375 Z" clip-path="url(#clipPath2)"/>
      <text x="673.2373" y="358.1543" clip-path="url(#clipPath2)" fill="black" font-family="sans-serif" stroke="none" xml:space="preserve">remote repo</text>
    </g>
    <g fill="lime" stroke-miterlimit="1.45" transform="matrix(1,0,0,1,-45,-215)" stroke-linecap="butt" stroke="lime">
      <path fill="none" d="M161.0371 354 L252.0344 354" clip-path="url(#clipPath2)"/>
    </g>
    <g fill="lime" stroke-miterlimit="1.45" transform="matrix(1,0,0,1,-45,-215)" stroke-linecap="butt" stroke="lime">
      <path d="M260.0344 354 L248.0344 349 L251.0344 354 L248.0344 359 Z" clip-path="url(#clipPath2)" stroke="none"/>
      <text x="178.1064" y="369.1387" clip-path="url(#clipPath2)" fill="black" font-family="sans-serif" stroke="none" xml:space="preserve">add &lt;file&gt;</text>
      <path fill="none" d="M361.0371 354 L452.0344 354" clip-path="url(#clipPath2)"/>
      <path d="M460.0344 354 L448.0344 349 L451.0344 354 L448.0344 359 Z" clip-path="url(#clipPath2)" stroke="none"/>
      <text x="387.8213" y="369.1387" clip-path="url(#clipPath2)" fill="black" font-family="sans-serif" stroke="none" xml:space="preserve">commit</text>
      <path fill="none" d="M110.5 322.9697 L110.5 230 L510.5 230 L510.5 314.9697" clip-path="url(#clipPath2)"/>
      <path d="M510.5 322.9697 L515.5 310.9697 L510.5 313.9697 L505.5 310.9697 Z" clip-path="url(#clipPath2)" stroke="none"/>
      <text x="280.0723" y="245.1387" clip-path="url(#clipPath2)" fill="black" font-family="sans-serif" stroke="none" xml:space="preserve">commit -a</text>
      <path fill="none" d="M561.0371 354 L652.0344 354" clip-path="url(#clipPath2)"/>
      <path d="M660.0344 354 L648.0344 349 L651.0344 354 L648.0344 359 Z" clip-path="url(#clipPath2)" stroke="none"/>
      <text x="595.96" y="369.1387" clip-path="url(#clipPath2)" fill="black" font-family="sans-serif" stroke="none" xml:space="preserve">push</text>
    </g>
  </g>
</svg>
