<?xml version="1.0" encoding="UTF-8"?>
<svg xmlns="http://www.w3.org/2000/svg" xmlns:xlink="http://www.w3.org/1999/xlink" fill-opacity="1" color-rendering="auto" color-interpolation="auto" stroke="black" text-rendering="auto" stroke-linecap="square" width="752" stroke-miterlimit="10" stroke-opacity="1" shape-rendering="auto" fill="black" stroke-dasharray="none" font-weight="normal" stroke-width="1" height="295" font-family="'Dialog'" font-style="normal" stroke-linejoin="miter" font-size="12" stroke-dashoffset="0" image-rendering="auto">
  <!--Generated by ySVG-->
  <defs id="genericDefs"/>
  <g>
    <defs id="defs1">
      <linearGradient x1="60" gradientUnits="userSpaceOnUse" x2="60" y1="322" y2="386.5" id="linearGradient1" spreadMethod="pad">
        <stop stop-opacity="1" stop-color="rgb(255,230,191)" offset="0%"/>
        <stop stop-opacity="1" stop-color="rgb(255,173,51)" offset="100%"/>
      </linearGradient>
      <linearGradient x1="260" gradientUnits="userSpaceOnUse" x2="260" y1="322" y2="386.5" id="linearGradient2" spreadMethod="pad">
        <stop stop-opacity="1" stop-color="rgb(255,230,191)" offset="0%"/>
        <stop stop-opacity="1" stop-color="rgb(255,173,51)" offset="100%"/>
      </linearGradient>
      <linearGradient x1="460" gradientUnits="userSpaceOnUse" x2="460" y1="322" y2="386.5" id="linearGradient3" spreadMethod="pad">
        <stop stop-opacity="1" stop-color="rgb(255,230,191)" offset="0%"/>
        <stop stop-opacity="1" stop-color="rgb(255,173,51)" offset="100%"/>
      </linearGradient>
      <linearGradient x1="681" gradientUnits="userSpaceOnUse" x2="681" y1="322" y2="386.5" id="linearGradient4" spreadMethod="pad">
        <stop stop-opacity="1" stop-color="rgb(255,230,191)" offset="0%"/>
        <stop stop-opacity="1" stop-color="rgb(255,173,51)" offset="100%"/>
      </linearGradient>
      <clipPath clipPathUnits="userSpaceOnUse" id="clipPath1">
        <path d="M0 0 L752 0 L752 295 L0 295 L0 0 Z"/>
      </clipPath>
      <clipPath clipPathUnits="userSpaceOnUse" id="clipPath2">
        <path d="M45 222 L797 222 L797 517 L45 517 L45 222 Z"/>
      </clipPath>
    </defs>
    <g fill="white" transform="translate(-45,-222)" stroke="white">
      <rect x="45" width="752" height="295" y="222" clip-path="url(#clipPath2)" stroke="none"/>
    </g>
    <g fill="rgb(255,153,0)" transform="matrix(1,0,0,1,-45,-222)" stroke="rgb(255,153,0)">
      <path d="M60 353 L161 353 L161 375 Q161 385 151 385 L70 385 Q60 385 60 375 Z" clip-path="url(#clipPath2)" stroke="none"/>
      <path fill="url(#linearGradient1)" d="M60 333 Q60 323 70 323 L151 323 Q161 323 161 333 L161 354 L60 354 Z" clip-path="url(#clipPath2)" stroke="none"/>
      <path fill="none" stroke-width="2" d="M62 333 Q62 325 70 325 L151 325 Q159 325 159 333 L159 375 Q159 383 151 383 L70 383 Q62 383 62 375 Z" clip-path="url(#clipPath2)" stroke="rgb(255,240,217)"/>
      <path fill="none" d="M62 333 Q62 325 70 325 L151 325 Q159 325 159 333 L159 375 Q159 383 151 383 L70 383 Q62 383 62 375 Z" clip-path="url(#clipPath2)"/>
      <text x="78.3789" y="358.1543" clip-path="url(#clipPath2)" fill="black" font-family="sans-serif" stroke="none" xml:space="preserve">workspace</text>
    </g>
    <g fill="rgb(255,153,0)" transform="matrix(1,0,0,1,-45,-222)" stroke="rgb(255,153,0)">
      <path d="M260 353 L361 353 L361 375 Q361 385 351 385 L270 385 Q260 385 260 375 Z" clip-path="url(#clipPath2)" stroke="none"/>
      <path fill="url(#linearGradient2)" d="M260 333 Q260 323 270 323 L351 323 Q361 323 361 333 L361 354 L260 354 Z" clip-path="url(#clipPath2)" stroke="none"/>
      <path fill="none" stroke-width="2" d="M262 333 Q262 325 270 325 L351 325 Q359 325 359 333 L359 375 Q359 383 351 383 L270 383 Q262 383 262 375 Z" clip-path="url(#clipPath2)" stroke="rgb(255,240,217)"/>
      <path fill="none" d="M262 333 Q262 325 270 325 L351 325 Q359 325 359 333 L359 375 Q359 383 351 383 L270 383 Q262 383 262 375 Z" clip-path="url(#clipPath2)"/>
      <text x="293.9795" y="358.1543" clip-path="url(#clipPath2)" fill="black" font-family="sans-serif" stroke="none" xml:space="preserve">index</text>
    </g>
    <g fill="rgb(255,153,0)" transform="matrix(1,0,0,1,-45,-222)" stroke="rgb(255,153,0)">
      <path d="M460 353 L561 353 L561 375 Q561 385 551 385 L470 385 Q460 385 460 375 Z" clip-path="url(#clipPath2)" stroke="none"/>
      <path fill="url(#linearGradient3)" d="M460 333 Q460 323 470 323 L551 323 Q561 323 561 333 L561 354 L460 354 Z" clip-path="url(#clipPath2)" stroke="none"/>
      <path fill="none" stroke-width="2" d="M462 333 Q462 325 470 325 L551 325 Q559 325 559 333 L559 375 Q559 383 551 383 L470 383 Q462 383 462 375 Z" clip-path="url(#clipPath2)" stroke="rgb(255,240,217)"/>
      <path fill="none" d="M462 333 Q462 325 470 325 L551 325 Q559 325 559 333 L559 375 Q559 383 551 383 L470 383 Q462 383 462 375 Z" clip-path="url(#clipPath2)"/>
      <text x="480.9746" y="358.1543" clip-path="url(#clipPath2)" fill="black" font-family="sans-serif" stroke="none" xml:space="preserve">local repo</text>
    </g>
    <g fill="rgb(255,153,0)" transform="matrix(1,0,0,1,-45,-222)" stroke="rgb(255,153,0)">
      <path d="M681 353 L782 353 L782 375 Q782 385 772 385 L691 385 Q681 385 681 375 Z" clip-path="url(#clipPath2)" stroke="none"/>
      <path fill="url(#linearGradient4)" d="M681 333 Q681 323 691 323 L772 323 Q782 323 782 333 L782 354 L681 354 Z" clip-path="url(#clipPath2)" stroke="none"/>
      <path fill="none" stroke-width="2" d="M683 333 Q683 325 691 325 L772 325 Q780 325 780 333 L780 375 Q780 383 772 383 L691 383 Q683 383 683 375 Z" clip-path="url(#clipPath2)" stroke="rgb(255,240,217)"/>
      <path fill="none" d="M683 333 Q683 325 691 325 L772 325 Q780 325 780 333 L780 375 Q780 383 772 383 L691 383 Q683 383 683 375 Z" clip-path="url(#clipPath2)"/>
      <text x="694.2373" y="358.1543" clip-path="url(#clipPath2)" fill="black" font-family="sans-serif" stroke="none" xml:space="preserve">remote repo</text>
    </g>
    <g stroke-linecap="butt" transform="matrix(1,0,0,1,-45,-222)" stroke-miterlimit="1.45">
      <path fill="none" d="M259.9629 354 L168.9656 354" clip-path="url(#clipPath2)"/>
    </g>
    <g stroke-linecap="butt" transform="matrix(1,0,0,1,-45,-222)" stroke-miterlimit="1.45">
      <path d="M160.9656 354 L172.9656 359 L169.9656 354 L172.9656 349 Z" clip-path="url(#clipPath2)" stroke="none"/>
      <text x="200.7998" xml:space="preserve" y="369.1387" font-family="sans-serif" clip-path="url(#clipPath2)" stroke="none">diff</text>
      <path fill="none" d="M510.5 384.9803 L510.5 481.79 L110.5 481.79 L110.5 392.9803" clip-path="url(#clipPath2)"/>
      <path d="M110.5 384.9803 L105.5 396.9803 L110.5 393.9803 L115.5 396.9803 Z" clip-path="url(#clipPath2)" stroke="none"/>
      <text x="281.8652" xml:space="preserve" y="496.9287" font-family="sans-serif" clip-path="url(#clipPath2)" stroke="none">diff HEAD</text>
      <path fill="none" d="M459.9629 354 L368.9656 354" clip-path="url(#clipPath2)"/>
      <path d="M360.9656 354 L372.9656 359 L369.9656 354 L372.9656 349 Z" clip-path="url(#clipPath2)" stroke="none"/>
      <text x="367.7822" xml:space="preserve" y="347.1699" font-family="sans-serif" clip-path="url(#clipPath2)" stroke="none">diff master, or</text>
      <text x="371.0781" xml:space="preserve" y="369.1387" font-family="sans-serif" clip-path="url(#clipPath2)" stroke="none">diff --cached </text>
      <path fill="none" d="M681.025 354 L568.9997 354" clip-path="url(#clipPath2)"/>
      <path d="M560.9997 354 L572.9997 359 L569.9997 354 L572.9997 349 Z" clip-path="url(#clipPath2)" stroke="none"/>
      <text x="569.2441" xml:space="preserve" y="369.1387" font-family="sans-serif" clip-path="url(#clipPath2)" stroke="none">diff origin master</text>
      <path fill="none" d="M731.5 322.9899 L731.5 237.79 L310.5 237.79 L310.5 314.9899" clip-path="url(#clipPath2)"/>
      <path d="M310.5 322.9899 L315.5 310.9899 L310.5 313.9899 L305.5 310.9899 Z" clip-path="url(#clipPath2)" stroke="none"/>
      <text x="492.3096" xml:space="preserve" y="252.9287" font-family="sans-serif" clip-path="url(#clipPath2)" stroke="none">diff origin</text>
    </g>
  </g>
</svg>
